<?xml version="1.0" encoding="utf-8"?>
<!-- Generator: Adobe Illustrator 16.0.0, SVG Export Plug-In . SVG Version: 6.00 Build 0)  -->
<!DOCTYPE svg PUBLIC "-//W3C//DTD SVG 1.1//EN" "http://www.w3.org/Graphics/SVG/1.1/DTD/svg11.dtd">
<svg version="1.1" id="Livello_1" xmlns="http://www.w3.org/2000/svg" xmlns:xlink="http://www.w3.org/1999/xlink" x="0px" y="0px"
	 width="403.78px" height="404.583px" viewBox="0 0 403.78 404.583" enable-background="new 0 0 403.78 404.583"
	 xml:space="preserve">
<g>
	<path fill="#A5DCE1" d="M202.086,402.586c-110.039,0-199.561-89.523-199.561-199.562c0-110.038,89.522-199.56,199.561-199.56
		s199.561,89.522,199.561,199.56C401.647,313.063,312.125,402.586,202.086,402.586z"/>
	<path fill="#8ABBC0" d="M202.086,5.465c26.672,0,52.544,5.223,76.898,15.523c23.525,9.95,44.653,24.196,62.798,42.341
		c18.146,18.145,32.392,39.273,42.342,62.797c10.301,24.354,15.523,50.226,15.523,76.898c0,26.672-5.223,52.544-15.523,76.899
		c-9.951,23.524-24.196,44.653-42.342,62.798c-18.145,18.146-39.273,32.391-62.798,42.341
		c-24.354,10.302-50.226,15.524-76.898,15.524c-26.672,0-52.544-5.223-76.898-15.524c-23.525-9.95-44.653-24.195-62.798-42.341
		C44.245,324.577,30,303.448,20.049,279.923C9.749,255.569,4.525,229.697,4.525,203.024c0-26.672,5.223-52.544,15.524-76.897
		C30,102.602,44.245,81.474,62.39,63.329c18.145-18.145,39.273-32.391,62.798-42.341C149.542,10.688,175.415,5.465,202.086,5.465
		 M202.086,1.465C90.769,1.465,0.525,91.707,0.525,203.024c0,111.319,90.244,201.562,201.561,201.562
		c111.318,0,201.561-90.243,201.561-201.562C403.647,91.707,313.404,1.465,202.086,1.465L202.086,1.465z"/>
</g>
<path fill="#FFFFFF" d="M279.519,171.275c-4.869-77.098-74.072-74.074-74.072-74.074c-73.574,1.68-73.57,75.585-73.57,75.585v22.171
	h147.642V171.275z"/>
<circle fill="#FFFFFF" stroke="#FFFFFF" stroke-miterlimit="10" cx="125.089" cy="200.636" r="27.21"/>
<path fill="#FFFFFF" stroke="#FFFFFF" stroke-miterlimit="10" d="M311.533,197.947c0,15.213-12.334,27.545-27.546,27.545
	c-15.216,0-27.544-12.332-27.544-27.545c0-15.212,12.328-27.546,27.544-27.546C299.199,170.401,311.533,182.735,311.533,197.947z"/>
<path fill="#FFFFFF" stroke="#FFFFFF" stroke-miterlimit="10" d="M206.72,203.434c0,15.026-12.186,27.209-27.21,27.209
	c-15.029,0-27.211-12.183-27.211-27.209c0-15.026,12.182-27.21,27.211-27.21C194.534,176.224,206.72,188.408,206.72,203.434z"/>
<path fill="#FFFFFF" stroke="#FFFFFF" stroke-miterlimit="10" d="M258.789,203.324c0,15.025-12.18,27.209-27.208,27.209
	c-15.031,0-27.211-12.185-27.211-27.209c0-15.028,12.18-27.21,27.211-27.21C246.609,176.113,258.789,188.295,258.789,203.324z"/>
<polygon fill="none" stroke="#FFFFFF" stroke-width="5" stroke-miterlimit="10" points="124.231,224.134 144.979,309.176 
	264.571,309.176 289.231,222.884 277.335,200.635 135.908,200.635 "/>
<line fill="none" stroke="#FFFFFF" stroke-width="5" stroke-miterlimit="10" x1="152.298" y1="240.309" x2="160.766" y2="292.381"/>
<line fill="none" stroke="#FFFFFF" stroke-width="5" stroke-miterlimit="10" x1="204.37" y1="240.309" x2="204.37" y2="291.038"/>
<line fill="none" stroke="#FFFFFF" stroke-width="5" stroke-miterlimit="10" x1="256.443" y1="241.653" x2="246.092" y2="292.381"/>
</svg>
