<?xml version="1.0" encoding="utf-8"?>
<!-- Generator: Adobe Illustrator 16.0.0, SVG Export Plug-In . SVG Version: 6.00 Build 0)  -->
<!DOCTYPE svg PUBLIC "-//W3C//DTD SVG 1.1//EN" "http://www.w3.org/Graphics/SVG/1.1/DTD/svg11.dtd">
<svg version="1.1" id="Livello_1" xmlns="http://www.w3.org/2000/svg" xmlns:xlink="http://www.w3.org/1999/xlink" x="0px" y="0px"
	 width="403.78px" height="404.583px" viewBox="0 0 403.78 404.583" enable-background="new 0 0 403.78 404.583"
	 xml:space="preserve">
<g>
	<path fill="#E2D9A3" d="M202.086,402.586c-110.039,0-199.561-89.523-199.561-199.562c0-110.038,89.522-199.56,199.561-199.56
		s199.561,89.522,199.561,199.56C401.647,313.063,312.125,402.586,202.086,402.586z"/>
	<path fill="#C7C092" d="M202.086,5.465c26.672,0,52.544,5.223,76.898,15.523c23.525,9.95,44.653,24.196,62.798,42.341
		c18.146,18.145,32.392,39.273,42.342,62.797c10.301,24.354,15.523,50.226,15.523,76.898c0,26.672-5.223,52.544-15.523,76.899
		c-9.951,23.524-24.196,44.653-42.342,62.798c-18.145,18.146-39.273,32.391-62.798,42.341
		c-24.354,10.302-50.226,15.524-76.898,15.524c-26.672,0-52.544-5.223-76.898-15.524c-23.525-9.95-44.653-24.195-62.798-42.341
		C44.245,324.577,30,303.448,20.049,279.923C9.749,255.569,4.525,229.697,4.525,203.024c0-26.672,5.223-52.544,15.524-76.897
		C30,102.602,44.245,81.474,62.39,63.329c18.145-18.145,39.273-32.391,62.798-42.341C149.542,10.688,175.415,5.465,202.086,5.465
		 M202.086,1.465C90.769,1.465,0.525,91.707,0.525,203.024c0,111.319,90.244,201.562,201.561,201.562
		c111.318,0,201.561-90.243,201.561-201.562C403.647,91.707,313.404,1.465,202.086,1.465L202.086,1.465z"/>
</g>
<path fill="#FFFFFF" d="M93.254,237.87c0,0-3.216,43.286,26.677,54.351c0,0,4.723,2.523,7.063-2.289c0,0,1.09-1.398,0.313-6.898
	c0,0-1.747-5.887,5.37-13.846c0,0,4.528-5.047-1.101-9.771c0,0-22.322-21.351-31.251-24.845
	C100.325,234.571,93.661,231.336,93.254,237.87z"/>
<path fill="#FFFFFF" d="M98.772,200.278c0,0,11.128-17.471,23.293-28.211c0,0,6.212-5.823,9.835-4.529c0,0,2.717-0.259,6.729,10.87
	c0,0,6.601,17.34,29.375,49.692c0,0,4.401,6.469,0,11.647c-4.399,5.175-15.657,14.106-18.893,15.786c0,0-4.529,3.754-11.518-3.623
	c-6.988-7.376-32.999-32.48-35.974-34.551C101.62,217.358,92.211,209.656,98.772,200.278z"/>
<path fill="#FFFFFF" d="M309.128,240.41c0,0,3.218,43.287-26.675,54.352c0,0-4.725,2.525-7.063-2.291c0,0-1.09-1.396-0.313-6.896
	c0,0,1.747-5.889-5.371-13.846c0,0-4.529-5.049,1.1-9.771c0,0,22.323-21.352,31.252-24.846
	C302.058,237.111,308.723,233.876,309.128,240.41z"/>
<path fill="#FFFFFF" d="M249.983,132.598c-9.317-9.446-53.574-8.087-53.574-8.087c-38.239-0.971-49.304,12.229-49.304,12.229
	c-4.663,3.62,0,12.812,0,12.812c1.164,2.135,21.158,61.144,26.593,78.032c5.436,16.887,12.035,15.14,12.035,15.14h32.998
	c4.853,0,7.376-8.152,7.376-8.152c2.33-4.658,27.951-80.362,27.951-80.362C259.171,141.722,249.983,132.598,249.983,132.598z
	 M222.549,172.714c-1.679,0-3.041-1.998-3.041-4.463c0-2.466,1.362-4.465,3.041-4.465s3.041,1.999,3.041,4.465
	C225.59,170.716,224.228,172.714,222.549,172.714z M233.45,164.95c-2.894,0-5.24-4.751-5.24-10.611
	c0-5.861,2.347-10.612,5.24-10.612c2.895,0,5.241,4.751,5.241,10.612C238.691,160.199,236.345,164.95,233.45,164.95z"/>
<path fill="#FFFFFF" d="M304.639,202.409c0,0-11.129-17.469-23.293-28.21c0,0-6.212-5.824-9.835-4.53c0,0-2.718-0.258-6.729,10.871
	c0,0-6.6,17.34-29.375,49.691c0,0-4.4,6.47,0,11.646c4.399,5.179,15.657,14.105,18.893,15.789c0,0,4.53,3.752,11.518-3.623
	c6.988-7.377,32.999-32.481,35.976-34.552C301.792,219.491,311.2,211.788,304.639,202.409z M293.655,216.297
	c-0.57,0-1.033-0.625-1.033-1.395c0-0.772,0.463-1.397,1.033-1.397s1.032,0.625,1.032,1.397
	C294.688,215.672,294.226,216.297,293.655,216.297z M295.016,210.371c-1.32,0-2.394-1.448-2.394-3.234
	c0-1.787,1.073-3.234,2.394-3.234c1.323,0,2.395,1.447,2.395,3.234C297.41,208.922,296.339,210.371,295.016,210.371z"/>
</svg>
