<?xml version="1.0" encoding="utf-8"?>
<!-- Generator: Adobe Illustrator 16.0.0, SVG Export Plug-In . SVG Version: 6.00 Build 0)  -->
<!DOCTYPE svg PUBLIC "-//W3C//DTD SVG 1.1//EN" "http://www.w3.org/Graphics/SVG/1.1/DTD/svg11.dtd">
<svg version="1.1" id="Livello_1" xmlns="http://www.w3.org/2000/svg" xmlns:xlink="http://www.w3.org/1999/xlink" x="0px" y="0px"
	 width="403.78px" height="404.583px" viewBox="0 0 403.78 404.583" enable-background="new 0 0 403.78 404.583"
	 xml:space="preserve">
<g>
	<g>
		<path fill="#E2A5A4" d="M202.086,402.586c-110.039,0-199.561-89.523-199.561-199.562c0-110.038,89.522-199.56,199.561-199.56
			s199.561,89.522,199.561,199.56C401.647,313.063,312.125,402.586,202.086,402.586z"/>
		<path fill="#CF9595" d="M202.086,5.465c26.672,0,52.544,5.223,76.898,15.523c23.525,9.95,44.653,24.196,62.798,42.341
			c18.146,18.145,32.392,39.273,42.342,62.797c10.301,24.354,15.523,50.226,15.523,76.898c0,26.672-5.223,52.544-15.523,76.899
			c-9.951,23.524-24.196,44.653-42.342,62.798c-18.145,18.146-39.273,32.391-62.798,42.341
			c-24.354,10.302-50.226,15.524-76.898,15.524c-26.672,0-52.544-5.223-76.898-15.524c-23.525-9.95-44.653-24.195-62.798-42.341
			C44.245,324.577,30,303.448,20.049,279.923C9.749,255.569,4.525,229.697,4.525,203.024c0-26.672,5.223-52.544,15.524-76.897
			C30,102.602,44.245,81.474,62.39,63.329c18.145-18.145,39.273-32.391,62.798-42.341C149.542,10.688,175.415,5.465,202.086,5.465
			 M202.086,1.465C90.769,1.465,0.525,91.707,0.525,203.024c0,111.319,90.244,201.562,201.561,201.562
			c111.318,0,201.561-90.243,201.561-201.562C403.647,91.707,313.404,1.465,202.086,1.465L202.086,1.465z"/>
	</g>
	<g>
		<g>
			<path fill="#FFFFFF" d="M231.823,154.154c0,11.349-9.2,20.54-20.541,20.54c-11.347,0-20.545-9.191-20.545-20.54
				c0-11.343,9.199-20.541,20.545-20.541C222.623,133.613,231.823,142.811,231.823,154.154z"/>
			<path fill="#FFFFFF" d="M216.653,134.329c0,0,7.778-32.421,28.172-39.839c0,0,8.764-3.199,17.862,3.708
				c0,0,1.518,1.01-2.359,2.357c0,0-20.842,6.259-39.322,35.503C221.006,136.058,216.795,138.604,216.653,134.329z"/>
			<path fill="#FFFFFF" d="M125.338,191.055c0,0,9.56-16.288,40.616-19.209c0,0,76.513-6.909,81.736-5.733
				c0,0,14.324-1.53,22.244,6.393c7.922,7.922,10.112,13.16,12.305,35.908c2.188,22.754,0,56.801,0,56.801
				s1.345,12.806-10.954,24.263c0,0-23.933,20.564-47.357,20.731c0,0-14.157,1.52-29.157-9.437c0,0-63.536-40.276-66.232-42.301
				c0,0-4.664-2.737-3.201-6.238c0,0,0.839-2.864,8.258,1.016l55.445,26.794c0,0,14.493,8.429,22.92-7.417
				c0,0,2.528-4.379,0.484-34.999c-0.08-1.205-2.885-0.479-3.012-3.766c0,0-0.125-1.958,3.374-3.2c0,0,2.253-0.082,1.516-23.931
				c0,0,0.843-19.548-24.942-21.74c0,0-47.19,0-60.501,6.909C128.878,191.897,124.999,194.426,125.338,191.055z"/>
		</g>
		<path fill="#FFFFFF" d="M128.088,200.652c0,0,41.457-10.956,63.198-8.599c0,0,12.811,1.181,12.811,14.159
			c0,0,1.685,23.928-13.653,20.219c0,0-58.143-10.618-61.174-12.47c0,0-8.569-2.017-7.218-7.238
			C122.051,206.723,122.654,201.999,128.088,200.652z"/>
		<path fill="#FFFFFF" d="M127.752,223.737c0,0-9.607,9.917,3.538,17.531c0,0,45.832,24.326,52.973,26.632
			c0.26,0.083,0.474,0.11,0.621,0.16c4.887,1.698,14.157,6.405,16.685-7.921c0,0,3.033-17.359-5.564-22.919
			c0,0-1.177-2.889-54.265-13.483C141.739,223.737,129.516,221.236,127.752,223.737z"/>
	</g>
</g>
</svg>
