<?xml version="1.0" encoding="utf-8"?>
<!-- Generator: Adobe Illustrator 19.2.0, SVG Export Plug-In . SVG Version: 6.00 Build 0)  -->
<svg version="1.1" id="Livello_1" xmlns="http://www.w3.org/2000/svg" xmlns:xlink="http://www.w3.org/1999/xlink" x="0px" y="0px"
	 viewBox="0 0 1200 17" style="enable-background:new 0 0 1200 17;" xml:space="preserve">
<style type="text/css">
	.st0{fill:url(#SVGID_1_);}
	.st1{fill:url(#SVGID_2_);}
	.st2{fill:#DFDFDF;}
</style>
<linearGradient id="SVGID_1_" gradientUnits="userSpaceOnUse" x1="309.1" y1="-814.94" x2="568.1" y2="-814.94" gradientTransform="matrix(1 0 0 -1 0 -805.89)">
	<stop  offset="0" style="stop-color:#FFFFFF;stop-opacity:0"/>
	<stop  offset="8.627998e-02" style="stop-color:#F3F3F3;stop-opacity:8.627999e-02"/>
	<stop  offset="0.2309" style="stop-color:#E8E8E8;stop-opacity:0.2309"/>
	<stop  offset="0.4346" style="stop-color:#E1E1E1;stop-opacity:0.4346"/>
	<stop  offset="1" style="stop-color:#DFDFDF"/>
</linearGradient>
<rect x="309.1" y="8.3" class="st0" width="259" height="1.5"/>
<linearGradient id="SVGID_2_" gradientUnits="userSpaceOnUse" x1="-54.8701" y1="-814.94" x2="204.1299" y2="-814.94" gradientTransform="matrix(-1 0 0 -1 833.93 -805.89)">
	<stop  offset="0" style="stop-color:#FFFFFF;stop-opacity:0"/>
	<stop  offset="8.627998e-02" style="stop-color:#F3F3F3;stop-opacity:8.627999e-02"/>
	<stop  offset="0.2309" style="stop-color:#E8E8E8;stop-opacity:0.2309"/>
	<stop  offset="0.4346" style="stop-color:#E1E1E1;stop-opacity:0.4346"/>
	<stop  offset="1" style="stop-color:#DFDFDF"/>
</linearGradient>
<polygon class="st1" points="888.8,9.8 629.8,9.8 629.8,8.3 888.8,8.3 "/>
<g>
	<path class="st2" d="M605.9,10.6c-1.7,0-3.1,1.4-3.1,3.1s1.4,3.1,3.1,3.1s3.1-1.4,3.1-3.1S607.6,10.6,605.9,10.6z M605.9,14.8
		c-0.7,0-1.2-0.5-1.2-1.2s0.5-1.2,1.2-1.2s1.2,0.5,1.2,1.2S606.6,14.8,605.9,14.8z"/>
	<path class="st2" d="M594,10.6c-1.7,0-3.1,1.4-3.1,3.1s1.4,3.1,3.1,3.1c1.7,0,3.1-1.4,3.1-3.1S595.7,10.6,594,10.6z M594.1,14.8
		c-0.7,0-1.2-0.5-1.2-1.2s0.5-1.2,1.2-1.2s1.2,0.5,1.2,1.2S594.7,14.8,594.1,14.8z"/>
	<path class="st2" d="M611.2,11.3c0,0,0-4.4-4.7-4.7c0,0-1.4-6.7-9.6-5.7c0,0-0.4-0.7-0.7-0.7c0,0-1.4-0.2-1.6,0.3
		c0,0-0.3,0.1,1,0.9c0,0-3.9,1.9-4,5.9c0,0-2.2,1.3-2.6,4h-0.4v1.6h0.4c0,0,0.5,1.8,1,1.8c0,0-0.1-4.8,3.9-5.1c0,0,4.2-0.2,4.4,5.1
		h3.5c0,0-0.2-5.2,4-5.1c0,0,4.1-0.3,4.1,5.1c0,0,1,0.1,1.1-1.7h0.4v-1.8L611.2,11.3z M597,7h-2.1c0.1-2.3,2.1-3.9,2.1-3.9V7z
		 M598.4,7V2.7c4.9-0.2,6.1,4.4,6.1,4.4h-6.1V7z"/>
</g>
</svg>
