<?xml version="1.0" encoding="utf-8"?>
<!-- Generator: Adobe Illustrator 19.2.0, SVG Export Plug-In . SVG Version: 6.00 Build 0)  -->
<svg version="1.1" id="Livello_1" xmlns="http://www.w3.org/2000/svg" xmlns:xlink="http://www.w3.org/1999/xlink" x="0px" y="0px"
	 viewBox="0 0 1200 19" style="enable-background:new 0 0 1200 19;" xml:space="preserve">
<style type="text/css">
	.st0{fill:url(#SVGID_1_);}
	.st1{fill:url(#SVGID_2_);}
	.st2{fill:#DFDFDF;}
</style>
<linearGradient id="SVGID_1_" gradientUnits="userSpaceOnUse" x1="308.55" y1="-812.74" x2="567.55" y2="-812.74" gradientTransform="matrix(1 0 0 -1 0 -803.49)">
	<stop  offset="0" style="stop-color:#FFFFFF;stop-opacity:0"/>
	<stop  offset="8.627998e-02" style="stop-color:#F3F3F3;stop-opacity:8.627999e-02"/>
	<stop  offset="0.2309" style="stop-color:#E8E8E8;stop-opacity:0.2309"/>
	<stop  offset="0.4346" style="stop-color:#E1E1E1;stop-opacity:0.4346"/>
	<stop  offset="1" style="stop-color:#DFDFDF"/>
</linearGradient>
<rect x="308.5" y="8.5" class="st0" width="259" height="1.5"/>
<linearGradient id="SVGID_2_" gradientUnits="userSpaceOnUse" x1="314.548" y1="-812.74" x2="573.548" y2="-812.74" gradientTransform="matrix(-1 0 0 -1 1202.798 -803.49)">
	<stop  offset="0" style="stop-color:#FFFFFF;stop-opacity:0"/>
	<stop  offset="8.627998e-02" style="stop-color:#F3F3F3;stop-opacity:8.627999e-02"/>
	<stop  offset="0.2309" style="stop-color:#E8E8E8;stop-opacity:0.2309"/>
	<stop  offset="0.4346" style="stop-color:#E1E1E1;stop-opacity:0.4346"/>
	<stop  offset="1" style="stop-color:#DFDFDF"/>
</linearGradient>
<polygon class="st1" points="888.2,10 629.2,10 629.2,8.5 888.2,8.5 "/>
<g>
	<path class="st2" d="M593.2,16.3v1.4c0,0,2.4,1.1,6.6,1.2c0,0,4.5,0.2,7.1-1.1v-1.5c0,0-2.8,1-7.2,1
		C599.8,17.2,595.2,17,593.2,16.3z"/>
	<path class="st2" d="M606.5,1.4c0,0-2.1-0.2-4.2,0.4c0,0-1.9-2.4-5-1.4c0,0-2.4,0.6-2.9,2.1c0,0-3.7-1.7-5.6,0.4
		c0,0-1.6,1.7-0.7,4.3c0,0,1.2,2.7,4.7,2.5l-0.1,5.3c0,0,2.5,1.6,7.4,1.2c0,0,4.1-0.4,6.9-0.4V9.5c0,0,3.9-1,4.1-4.4
		C611.2,5.1,611.3,1.7,606.5,1.4z M590.5,4.9c0,0-0.7,1.3,0,2.9c0,0-2.2-1-1.4-3.3c0,0,0.6-2.1,3.6-1.6C592.8,3,591.2,3.6,590.5,4.9
		z M595.2,14.8l-1.2-0.2v-5l1.2-0.3V14.8z M596.4,3.8c-0.2-0.5-0.9-1-0.9-1c2.1-1.8,3.6-1.2,3.6-1.2C597.9,1.8,596.4,3.8,596.4,3.8z
		 M603.9,3.8c-0.1-0.2-0.8-1-0.8-1c1.2-0.9,2.5-0.6,2.5-0.6C604.8,2.3,603.9,3.8,603.9,3.8z"/>
</g>
</svg>
