<?xml version="1.0" encoding="utf-8"?>
<!-- Generator: Adobe Illustrator 16.0.0, SVG Export Plug-In . SVG Version: 6.00 Build 0)  -->
<!DOCTYPE svg PUBLIC "-//W3C//DTD SVG 1.1//EN" "http://www.w3.org/Graphics/SVG/1.1/DTD/svg11.dtd">
<svg version="1.1" id="Livello_1" xmlns="http://www.w3.org/2000/svg" xmlns:xlink="http://www.w3.org/1999/xlink" x="0px" y="0px"
	 width="403.78px" height="404.583px" viewBox="0 0 403.78 404.583" enable-background="new 0 0 403.78 404.583"
	 xml:space="preserve">
<path fill="#88A5BD" d="M403.195,202.01c0,111.125-90.08,201.21-201.21,201.21c-111.121,0-201.202-90.085-201.202-201.21
	C0.783,90.884,90.864,0.802,201.985,0.802C313.115,0.802,403.195,90.884,403.195,202.01z"/>
<g>
	<path fill-rule="evenodd" clip-rule="evenodd" fill="#FFFFFF" d="M130.569,109.218h136.475c12.961,0,23.566,9.591,23.566,23.565
		v136.474c0,13.975-10.605,23.566-23.566,23.566H130.569c-12.961,0-23.564-9.592-23.564-23.566V132.783
		C107.005,118.809,117.608,109.218,130.569,109.218L130.569,109.218z M240.755,129.616c-4.546,0-8.267,3.718-8.267,8.266v19.792
		c0,4.546,3.721,8.266,8.267,8.266h20.757c4.538,0,8.257-3.719,8.257-8.266v-19.792c0-4.548-3.719-8.266-8.257-8.266H240.755z
		 M269.861,186.862h-16.163c1.527,4.989,2.355,10.283,2.355,15.751c0,30.542-25.554,55.303-57.072,55.303
		c-31.52,0-57.073-24.761-57.073-55.303c0-5.469,0.831-10.762,2.358-15.751h-16.854v77.563c0,4.014,3.276,7.3,7.3,7.3h127.849
		c4.022,0,7.3-3.286,7.3-7.3V186.862z M198.981,164.889c-20.36,0-36.874,15.999-36.874,35.734c0,19.738,16.514,35.738,36.874,35.738
		c20.362,0,36.876-16,36.876-35.738C235.857,180.888,219.352,164.889,198.981,164.889L198.981,164.889z M198.981,164.889"/>
</g>
</svg>
