<?xml version="1.0" encoding="utf-8"?>
<!-- Generator: Adobe Illustrator 16.0.0, SVG Export Plug-In . SVG Version: 6.00 Build 0)  -->
<!DOCTYPE svg PUBLIC "-//W3C//DTD SVG 1.1//EN" "http://www.w3.org/Graphics/SVG/1.1/DTD/svg11.dtd">
<svg version="1.1" id="Livello_1" xmlns="http://www.w3.org/2000/svg" xmlns:xlink="http://www.w3.org/1999/xlink" x="0px" y="0px"
	 width="403.78px" height="404.583px" viewBox="0 0 403.78 404.583" enable-background="new 0 0 403.78 404.583"
	 xml:space="preserve">
<path fill="#8AC7EC" d="M403.195,202.01c0,111.125-90.08,201.21-201.21,201.21c-111.121,0-201.202-90.085-201.202-201.21
	C0.783,90.884,90.864,0.802,201.985,0.802C313.115,0.802,403.195,90.884,403.195,202.01z"/>
<g>
	<g>
		<defs>
			<rect id="SVGID_1_" x="96.795" y="110.885" width="208.388" height="181.67"/>
		</defs>
		<clipPath id="SVGID_2_">
			<use xlink:href="#SVGID_1_"  overflow="visible"/>
		</clipPath>
		<path clip-path="url(#SVGID_2_)" fill="#FFFFFF" d="M304.222,152.431c-0.921,20.206-15.05,47.882-42.329,83.011
			c-28.21,36.68-52.087,55.025-71.624,55.025c-12.084,0-22.32-11.162-30.69-33.521c-5.585-20.485-11.168-40.949-16.752-61.436
			c-6.196-22.342-12.854-33.521-19.983-33.521c-1.544,0-6.991,3.277-16.293,9.781l-9.755-12.585
			c10.238-8.988,20.338-18.005,30.275-27.022c13.67-11.793,23.917-18.012,30.766-18.638c16.146-1.553,26.088,9.496,29.816,33.134
			c4.039,25.507,6.823,41.377,8.388,47.58c4.647,21.166,9.78,31.736,15.362,31.736c4.352,0,10.884-6.869,19.579-20.59
			c8.692-13.735,13.347-24.181,13.972-31.341c1.242-11.854-3.42-17.794-13.972-17.794c-4.977,0-10.101,1.138-15.363,3.401
			c10.198-33.405,29.682-49.645,58.453-48.725C295.402,111.552,305.441,125.392,304.222,152.431L304.222,152.431z M304.222,152.431"
			/>
	</g>
</g>
</svg>
