<?xml version="1.0" encoding="utf-8"?>
<!-- Generator: Adobe Illustrator 19.2.0, SVG Export Plug-In . SVG Version: 6.00 Build 0)  -->
<svg version="1.1" id="Livello_1" xmlns="http://www.w3.org/2000/svg" xmlns:xlink="http://www.w3.org/1999/xlink" x="0px" y="0px"
	 viewBox="0 0 1200 22" style="enable-background:new 0 0 1200 22;" xml:space="preserve">
<style type="text/css">
	.st0{fill:url(#SVGID_1_);}
	.st1{fill:url(#SVGID_2_);}
	.st2{fill:#DFDFDF;}
</style>
<linearGradient id="SVGID_1_" gradientUnits="userSpaceOnUse" x1="308" y1="2478.8101" x2="567" y2="2478.8101" gradientTransform="matrix(1 0 0 1 0 -2467.5601)">
	<stop  offset="0" style="stop-color:#FFFFFF;stop-opacity:0"/>
	<stop  offset="8.627998e-02" style="stop-color:#F3F3F3;stop-opacity:8.627999e-02"/>
	<stop  offset="0.2309" style="stop-color:#E8E8E8;stop-opacity:0.2309"/>
	<stop  offset="0.4346" style="stop-color:#E1E1E1;stop-opacity:0.4346"/>
	<stop  offset="1" style="stop-color:#DFDFDF"/>
</linearGradient>
<rect x="308" y="10.5" class="st0" width="259" height="1.5"/>
<linearGradient id="SVGID_2_" gradientUnits="userSpaceOnUse" x1="-97.9701" y1="2478.8101" x2="161.0299" y2="2478.8101" gradientTransform="matrix(-1 0 0 1 789.7299 -2467.5601)">
	<stop  offset="0" style="stop-color:#FFFFFF;stop-opacity:0"/>
	<stop  offset="8.627998e-02" style="stop-color:#F3F3F3;stop-opacity:8.627999e-02"/>
	<stop  offset="0.2309" style="stop-color:#E8E8E8;stop-opacity:0.2309"/>
	<stop  offset="0.4346" style="stop-color:#E1E1E1;stop-opacity:0.4346"/>
	<stop  offset="1" style="stop-color:#DFDFDF"/>
</linearGradient>
<polygon class="st1" points="887.7,12 628.7,12 628.7,10.5 887.7,10.5 "/>
<g>
	<g>
		<path class="st2" d="M611,16.6v-7c0.7-0.3,1.2-1,1.2-1.8c0-1.1-0.9-2-2-2h-2.5h-2.2h-1.1c0.1-0.1,0.2-0.2,0.3-0.3
			c0.6-0.6,1.1-1.3,1.5-2.1c0.4-0.8,0.7-1.7,0.7-2.9c-1.2,0-2.1,0.4-2.9,0.7c-0.8,0.4-1.5,0.9-2.1,1.5c-0.1,0.1-0.1,0.1-0.2,0.2
			c-0.3-0.4-0.7-0.7-1.3-0.7c-0.6,0-1.2,0.4-1.4,0.9c-0.1-0.1-0.2-0.3-0.4-0.4c-0.6-0.6-1.3-1.1-2.1-1.5c-0.8-0.4-1.7-0.7-2.9-0.7
			c0,1.2,0.4,2.1,0.7,2.9c0.4,0.8,0.9,1.5,1.5,2.1c0.1,0.1,0.2,0.2,0.3,0.3H595h-2.2h-2.5c-1.1,0-2,0.9-2,2c0,0.7,0.4,1.3,0.9,1.7
			v7.2h-1.9l0.7,5.5h24.2l0.7-5.5C613.1,16.6,611,16.6,611,16.6z M591.6,9.7h1.4c0,0.1,0,0.1,0,0.2v2.6c0,0.4,0.3,0.7,0.7,0.7
			c0.4,0,0.7-0.3,0.7-0.7V10c0-0.1,0-0.2,0-0.2h1.6v2.1c0,0.4,0.3,0.7,0.7,0.7s0.7-0.3,0.7-0.7V9.7h0.5c0,0.1,0,0.1,0,0.2v2.6
			c0,0.4,0.3,0.7,0.7,0.7c0.4,0,0.7-0.3,0.7-0.7V10c0-0.1,0-0.2,0-0.2h1.1v0.8c0,0.4,0.3,0.7,0.7,0.7s0.7-0.3,0.7-0.7V9.7h0.7v1.4
			c0,0.4,0.3,0.7,0.7,0.7c0.4,0,0.7-0.3,0.7-0.7V9.7h1v2.1c0,0.4,0.3,0.7,0.7,0.7c0.4,0,0.7-0.3,0.7-0.7V9.7h0.3v1.4
			c0,0.4,0.3,0.7,0.7,0.7s0.7-0.3,0.7-0.7V9.7h0.7v6.6h-17.1C591.6,16.3,591.6,9.7,591.6,9.7z"/>
	</g>
</g>
</svg>
