<?xml version="1.0" encoding="utf-8"?>
<!-- Generator: Adobe Illustrator 16.0.0, SVG Export Plug-In . SVG Version: 6.00 Build 0)  -->
<!DOCTYPE svg PUBLIC "-//W3C//DTD SVG 1.1//EN" "http://www.w3.org/Graphics/SVG/1.1/DTD/svg11.dtd">
<svg version="1.1" id="Livello_1" xmlns="http://www.w3.org/2000/svg" xmlns:xlink="http://www.w3.org/1999/xlink" x="0px" y="0px"
	 width="403.78px" height="404.583px" viewBox="0 0 403.78 404.583" enable-background="new 0 0 403.78 404.583"
	 xml:space="preserve">
<path fill="#8FA2CC" d="M403.195,202.01c0,111.125-90.08,201.21-201.21,201.21c-111.121,0-201.202-90.085-201.202-201.21
	C0.783,90.884,90.864,0.802,201.985,0.802C313.115,0.802,403.195,90.884,403.195,202.01z"/>
<g>
	<g>
		<defs>
			<rect id="SVGID_1_" x="140.548" y="100.23" width="104.448" height="201.417"/>
		</defs>
		<clipPath id="SVGID_2_">
			<use xlink:href="#SVGID_1_"  overflow="visible"/>
		</clipPath>
		<path clip-path="url(#SVGID_2_)" fill="#FFFFFF" d="M240.051,100.009l-24.805-0.039c-27.856,0-45.862,19.459-45.862,49.569v22.857
			h-24.94c-2.149,0-3.896,1.829-3.896,4.103v33.12c0,2.259,1.747,4.098,3.896,4.098h24.94v83.562c0,2.257,1.744,4.099,3.904,4.099
			h32.518c2.158,0,3.907-1.842,3.907-4.099v-83.562h29.149c2.154,0,3.896-1.839,3.896-4.098l0.022-33.12
			c0-1.084-0.421-2.129-1.147-2.903c-0.729-0.766-1.723-1.2-2.758-1.2h-29.162v-19.375c0-9.312,2.107-14.041,13.62-14.041
			l16.705-0.015c2.157,0,3.896-1.833,3.896-4.1v-30.741C243.935,101.852,242.196,100.02,240.051,100.009L240.051,100.009z
			 M240.051,100.009"/>
	</g>
</g>
</svg>
