<?xml version="1.0" encoding="utf-8"?>
<!-- Generator: Adobe Illustrator 19.2.0, SVG Export Plug-In . SVG Version: 6.00 Build 0)  -->
<svg version="1.1" id="Livello_1" xmlns="http://www.w3.org/2000/svg" xmlns:xlink="http://www.w3.org/1999/xlink" x="0px" y="0px"
	 viewBox="0 0 1200 17" style="enable-background:new 0 0 1200 17;" xml:space="preserve">
<style type="text/css">
	.st0{fill:url(#SVGID_1_);}
	.st1{fill:url(#SVGID_2_);}
	.st2{fill:#DFDFDF;}
</style>
<linearGradient id="SVGID_1_" gradientUnits="userSpaceOnUse" x1="308.8325" y1="-1638.74" x2="567.8325" y2="-1638.74" gradientTransform="matrix(1 0 0 -1 0 -1629.49)">
	<stop  offset="0" style="stop-color:#FFFFFF;stop-opacity:0"/>
	<stop  offset="8.627998e-02" style="stop-color:#F3F3F3;stop-opacity:8.627999e-02"/>
	<stop  offset="0.2309" style="stop-color:#E8E8E8;stop-opacity:0.2309"/>
	<stop  offset="0.4346" style="stop-color:#E1E1E1;stop-opacity:0.4346"/>
	<stop  offset="1" style="stop-color:#DFDFDF"/>
</linearGradient>
<rect x="308.8" y="8.5" class="st0" width="259" height="1.5"/>
<linearGradient id="SVGID_2_" gradientUnits="userSpaceOnUse" x1="-83.1376" y1="-1638.74" x2="175.8624" y2="-1638.74" gradientTransform="matrix(-1 0 0 -1 805.3948 -1629.49)">
	<stop  offset="0" style="stop-color:#FFFFFF;stop-opacity:0"/>
	<stop  offset="8.627998e-02" style="stop-color:#F3F3F3;stop-opacity:8.627999e-02"/>
	<stop  offset="0.2309" style="stop-color:#E8E8E8;stop-opacity:0.2309"/>
	<stop  offset="0.4346" style="stop-color:#E1E1E1;stop-opacity:0.4346"/>
	<stop  offset="1" style="stop-color:#DFDFDF"/>
</linearGradient>
<polygon class="st1" points="888.5,10 629.5,10 629.5,8.5 888.5,8.5 "/>
<g>
	<g>
		<path class="st2" d="M609.3,6.1L609.3,6.1c-0.1-2.9-2.4-5.4-5.3-5.4c-1.7,0-3.1,0.9-4.1,2.1c-1-1.3-2.4-2.1-4.1-2.1
			c-2.9,0-5.2,2.6-5.3,5.4l0,0v0.1l0,0v0.2c0.3,7.3,9.3,10.3,9.3,10.3s9.1-3,9.4-10.3L609.3,6.1L609.3,6.1L609.3,6.1z"/>
	</g>
</g>
</svg>
